{
  "accessors": [
    {
      "bufferView": 2,
      "componentType": 5126,
      "count": 17005,
      "max": [
        3.0338408946990967,
        3.1007421016693115,
        5.40726900100708
      ],
      "min": [
        -3.0768940448760986,
        -2.3969640731811523,
        0.013043000362813473
      ],
      "type": "VEC3"
    },
    {
      "bufferView": 2,
      "byteOffset": 204060,
      "componentType": 5126,
      "count": 17005,
      "max": [
        0.9999966621398926,
        0.9999480247497559,
        0.9999938011169434
      ],
      "min": [
        -0.9999493360519409,
        -0.999998927116394,
        -1.0
      ],
      "type": "VEC3"
    },
    {
      "bufferView": 3,
      "componentType": 5126,
      "count": 17005,
      "max": [
        0.9997175931930542,
        0.9993627667427063,
        0.9999963045120239,
        1.0
      ],
      "min": [
        -0.9999997615814209,
        -0.9999902844429016,
        -0.9999998807907104,
        -1.0
      ],
      "type": "VEC4"
    },
    {
      "bufferView": 1,
      "componentType": 5126,
      "count": 17005,
      "max": [
        1.0,
        0.9998980164527893
      ],
      "min": [
        0.0,
        0.0
      ],
      "type": "VEC2"
    },
    {
      "bufferView": 0,
      "componentType": 5125,
      "count": 68553,
      "type": "SCALAR"
    }
  ],
  "asset": {
    "extras": {
      "author": "Lassi Kaukonen (https://sketchfab.com/thesidekick)",
      "license": "CC-BY-4.0 (http://creativecommons.org/licenses/by/4.0/)",
      "source": "https://sketchfab.com/3d-models/green-armchair-dfea2ba02820403784d99f7d30faeb2a",
      "title": "Green armchair"
    },
    "generator": "Sketchfab-15.26.0",
    "version": "2.0"
  },
  "bufferViews": [
    {
      "buffer": 0,
      "byteLength": 274212,
      "name": "floatBufferViews",
      "target": 34963
    },
    {
      "buffer": 0,
      "byteLength": 136040,
      "byteOffset": 274212,
      "byteStride": 8,
      "name": "floatBufferViews",
      "target": 34962
    },
    {
      "buffer": 0,
      "byteLength": 408120,
      "byteOffset": 410252,
      "byteStride": 12,
      "name": "floatBufferViews",
      "target": 34962
    },
    {
      "buffer": 0,
      "byteLength": 272080,
      "byteOffset": 818372,
      "byteStride": 16,
      "name": "floatBufferViews",
      "target": 34962
    }
  ],
  "buffers": [
    {
      "byteLength": 1090452,
      "uri": "scene.bin"
    }
  ],
  "extensionsRequired": [
    "KHR_materials_pbrSpecularGlossiness"
  ],
  "extensionsUsed": [
    "KHR_materials_pbrSpecularGlossiness"
  ],
  "images": [
    {
      "uri": "textures/Green_Armchair_lowpoly_diffuse.jpeg"
    },
    {
      "uri": "textures/Green_Armchair_lowpoly_specularGlossiness.png"
    },
    {
      "uri": "textures/Green_Armchair_lowpoly_normal.png"
    },
    {
      "uri": "textures/Green_Armchair_lowpoly_occlusion.png"
    }
  ],
  "materials": [
    {
      "doubleSided": true,
      "extensions": {
        "KHR_materials_pbrSpecularGlossiness": {
          "diffuseFactor": [
            1.0,
            1.0,
            1.0,
            1.0
          ],
          "diffuseTexture": {
            "index": 0
          },
          "glossinessFactor": 1.0,
          "specularFactor": [
            0.10209554924357864,
            0.10209554924357864,
            0.10209554924357864
          ],
          "specularGlossinessTexture": {
            "index": 1
          }
        }
      },
      "name": "Green_Armchair_lowpoly",
      "normalTexture": {
        "index": 2
      },
      "occlusionTexture": {
        "index": 3
      }
    }
  ],
  "meshes": [
    {
      "name": "Object_0",
      "primitives": [
        {
          "attributes": {
            "NORMAL": 1,
            "POSITION": 0,
            "TANGENT": 2,
            "TEXCOORD_0": 3
          },
          "indices": 4,
          "material": 0,
          "mode": 4
        }
      ]
    }
  ],
  "nodes": [
    {
      "children": [
        1
      ],
      "matrix": [
        0.9999944567680359,
        -0.003325133817270398,
        -7.383280247786668e-19,
        0.0,
        0.0,
        2.220446049250313e-16,
        -1.0,
        0.0,
        0.003325133817270398,
        0.9999944567680359,
        2.2204337408027983e-16,
        0.0,
        0.0,
        0.0,
        0.0,
        1.0
      ],
      "name": "Sketchfab_model"
    },
    {
      "children": [
        2
      ],
      "name": "Green_Armchair_lowpoly_SF.obj.cleaner.materialmerger.gles"
    },
    {
      "mesh": 0,
      "name": "Object_2"
    }
  ],
  "samplers": [
    {
      "magFilter": 9729,
      "minFilter": 9987,
      "wrapS": 10497,
      "wrapT": 10497
    }
  ],
  "scene": 0,
  "scenes": [
    {
      "name": "Sketchfab_Scene",
      "nodes": [
        0
      ]
    }
  ],
  "textures": [
    {
      "sampler": 0,
      "source": 0
    },
    {
      "sampler": 0,
      "source": 1
    },
    {
      "sampler": 0,
      "source": 2
    },
    {
      "sampler": 0,
      "source": 3
    }
  ]
}
